/* XPM */
static char *door[] = {
/* columns rows colors chars-per-pixel */
"32 32 5 1",
"  c #8B4513", /* Dark brown */
". c #A0522D", /* Saddle brown */
"X c #D2691E", /* Chocolate */
"o c #CD853F", /* Peru */
"O c #DEB887", /* Burlywood */
/* pixels */
"oooooooooooooooooooooooooooooooo",
"oooooooooooooooooooooooooooooooo",
"oo                            oo",
"oo                            oo",
"oo   ....              ....   oo",
"oo   ....              ....   oo",
"oo   ....  OOOOOOOO    ....   oo",
"oo   ....  OOOOOOOO    ....   oo",
"oo   ....  OOOOOOOO    ....   oo",
"oo   ....  OOOOOOOO    ....   oo",
"oo   ....              ....   oo",
"oo   ....              ....   oo",
"oo   ....      ..      ....   oo",
"oo   ....      ..      ....   oo",
"oo   ....      ..      ....   oo",
"oo   ....      ..      ....   oo",
"oo   ....      ..      ....   oo",
"oo   ....      ..      ....   oo",
"oo   ....      ..      ....   oo",
"oo   ....      ..      ....   oo",
"oo   ....      ..      ....   oo",
"oo   ....      ..      ....   oo",
"oo   ....      ..      ....   oo",
"oo   ....      ..      ....   oo",
"oo   ....              ....   oo",
"oo   ....              ....   oo",
"oo                            oo",
"oo                            oo",
"oooooooooooooooooooooooooooooooo",
"oooooooooooooooooooooooooooooooo",
"oooooooooooooooooooooooooooooooo",
"oooooooooooooooooooooooooooooooo"
};