/* XPM */
static char *gun_fire_3[] = {
/* columns rows colors chars-per-pixel */
"32 16 6 1",
"  c #2C2C2C", /* Dark grey for gun metal */
". c #484848", /* Mid grey for details */
"X c #686868", /* Light grey for highlights */
"o c #8C8C8C", /* Bright grey for shine */
"+ c #FF8C00", /* Dark orange for muzzle flash */
"O c None",
/* pixels */
"OOOOOOOOOOOOO++OOOOOOOOOOOOOOOOO",
"OOOOOOOOOOOO++++OOOOOOOOOOOOOOOO",
"OOOOOOOOOOO++++++OOOOOOOOOOOOOOO",
"OOOOOOOOOO++    ++OOOOOOOOOOOOOO",
"OOOOOOOOOOO  ..  OOOOOOOOOOOOOOO",
"OOOOOOOOOO  XXXX  OOOOOOOOOOOOOO",
"OOOOOOOOO  XooooX  OOOOOOOOOOOOO",
"OOOOOOOO             OOOOOOOOOOO",
"OOOOOOO  XXXXXXXXXXX  OOOOOOOOOO",
"OOOOOO  XXXXXXXXXXXXX  OOOOOOOOO",
"OOOOO                   OOOOOOOO",
"OOOO  XXXXXXXXXXXXXXX  OOOOOOOOO",
"OOO  XXXXXXXXXXXXXXXXX  OOOOOOOO",
"OO                      OOOOOOOO",
"OOOOOOOOOOOOOOOOOOOOOOOOOOOOOOOO",
"OOOOOOOOOOOOOOOOOOOOOOOOOOOOOOOO"
};